# xmcd
#
# Track frame offsets:
#	150
#	17892
#	36407
#	56287
#	74715
#	88302
#	107882
#	122220
#	136150
#	151050
#	163125
#	190157
#
# Disc length: 2933 seconds
#
# Revision: 0
# Processed by: cddbd v1.5PL3 Copyright (c) Steve Scherf et al.
# Submitted via: audiograbber 1.83.01
#
DISCID=aa0b730c
DTITLE=Roscoe Shelton - Let It Shine
DYEAR=1998
DGENRE=R&B
TTITLE0=Lady (Your Man's runnin' 'Round)
TTITLE1=Easy Giong Fellow
TTITLE2=Sometimes i Get Bitter
TTITLE3=Let It Shine
TTITLE4=Why Did'n you Tell Me
TTITLE5=Save Me
TTITLE6=I Thank You
TTITLE7=All Night Long
TTITLE8=I Was Wrong
TTITLE9=Tht Rest Of My Life
TTITLE10=I Want Ypu
TTITLE11=Hard To Be Allone
EXTD=
EXTT0=Lady
EXTT1=Somertimes
EXTT2=
EXTT3=
EXTT4=
EXTT5=
EXTT6=
EXTT7=
EXTT8=
EXTT9=
EXTT10=
EXTT11=
PLAYORDER=
